<svg width="96" height="96" viewBox="0 0 96 96" fill="none" xmlns="http://www.w3.org/2000/svg">
  <rect width="96" height="96" rx="24" fill="#0A0A0F"/>
  <rect x="7" y="7" width="82" height="82" rx="21" fill="url(#glass)" fill-opacity="0.78"/>
  <rect x="7.5" y="7.5" width="81" height="81" rx="20.5" stroke="url(#edge)" stroke-opacity="0.86"/>
  <path d="M31 70V25h19.3c10.7 0 18.2 6.8 18.2 16.8 0 10.1-7.5 16.9-18.2 16.9H42.4V70H31Zm11.4-20.9h6.8c4.9 0 7.9-2.8 7.9-7.3 0-4.4-3-7.2-7.9-7.2h-6.8v14.5Z" fill="white"/>
  <path d="M27 74h42" stroke="url(#edge)" stroke-width="3.4" stroke-linecap="round"/>
  <circle cx="70" cy="25" r="5" fill="#FF4DA6"/>
  <defs>
    <linearGradient id="glass" x1="10" y1="8" x2="88" y2="88" gradientUnits="userSpaceOnUse">
      <stop stop-color="#24213F"/>
      <stop offset="0.52" stop-color="#111827"/>
      <stop offset="1" stop-color="#1D1025"/>
    </linearGradient>
    <linearGradient id="edge" x1="18" y1="13" x2="82" y2="82" gradientUnits="userSpaceOnUse">
      <stop stop-color="#7B61FF"/>
      <stop offset="0.48" stop-color="#4DAFFF"/>
      <stop offset="1" stop-color="#FF4DA6"/>
    </linearGradient>
  </defs>
</svg>
